<svg xmlns="http://www.w3.org/2000/svg" xmlns:xlink="http://www.w3.org/1999/xlink" viewBox="0 0 120.43 120.4"><defs><style>.cls-1{isolation:isolate;}.cls-2{fill:#c4c1bf;}.cls-3{fill:#c6653c;}.cls-4{fill:#a54328;}.cls-5{opacity:0.57;mix-blend-mode:multiply;fill:url(#radial-gradient);}.cls-6{fill:#dbd9d2;}</style><radialGradient id="radial-gradient" cx="18.55" cy="162.12" r="60.18" gradientTransform="translate(58.62 -102.9) rotate(5.96)" gradientUnits="userSpaceOnUse"><stop offset="0" stop-color="#1f1a1e"/><stop offset="0.01" stop-color="#454145"/><stop offset="0.03" stop-color="#a5a3a5"/><stop offset="0.05" stop-color="#fff"/><stop offset="0.14" stop-color="#fdfcfc"/><stop offset="0.2" stop-color="#f4f4f4" stop-opacity="0.99"/><stop offset="0.25" stop-color="#e6e6e6" stop-opacity="0.98"/><stop offset="0.29" stop-color="#d2d1d2" stop-opacity="0.96"/><stop offset="0.33" stop-color="#b9b7b8" stop-opacity="0.94"/><stop offset="0.37" stop-color="#999799" stop-opacity="0.91"/><stop offset="0.4" stop-color="#737073" stop-opacity="0.88"/><stop offset="0.44" stop-color="#494548" stop-opacity="0.84"/><stop offset="0.47" stop-color="#191418" stop-opacity="0.8"/><stop offset="0.47" stop-color="#181317" stop-opacity="0.8"/><stop offset="0.51" stop-color="#383337" stop-opacity="0.83"/><stop offset="0.6" stop-color="#747073" stop-opacity="0.88"/><stop offset="0.69" stop-color="#a5a3a5" stop-opacity="0.92"/><stop offset="0.78" stop-color="#cccbcc" stop-opacity="0.95"/><stop offset="0.85" stop-color="#e8e8e8" stop-opacity="0.97"/><stop offset="0.92" stop-color="#f9f9f9" stop-opacity="0.99"/><stop offset="0.97" stop-color="#fff" stop-opacity="0.99"/><stop offset="0.99" stop-color="#696668"/><stop offset="1" stop-color="#181317"/></radialGradient></defs><title>AS_Houdini</title><g class="cls-1"><g id="Layer_2" data-name="Layer 2"><g id="Desktop_S1"><g id="SoftwareChips"><g id="HoudiniChip"><g id="Shape"><rect id="MBG" class="cls-2" y="0.94" width="120" height="119" rx="59.5" transform="translate(-7.84 8.95) rotate(-8.01)"/><rect id="MBG-2" data-name="MBG" class="cls-3" x="19.05" y="20.68" width="81" height="80.32" rx="40.16" transform="translate(-7.9 8.9) rotate(-8.01)"/><path class="cls-4" d="M68.06,119.81c32.61-4.59,56.4-34.91,51.8-67.58S84-4,51.28.57-4,36.33.62,69A59.81,59.81,0,0,0,68.06,119.81ZM53.36,15.34a45.79,45.79,0,1,1-39,51.73A45.86,45.86,0,0,1,53.36,15.34Zm-35,51.18h0a42.28,42.28,0,0,0,2.9,10.53l-2.6,1.14a44.79,44.79,0,0,0,5.93,10l2.23-1.72a42.12,42.12,0,0,0,7.79,7.65l-1.73,2.29A48.48,48.48,0,0,0,43,102.23l1-2.62a42.58,42.58,0,0,0,10.55,2.75l-.38,2.81a45,45,0,0,0,11.64-.09h0l-.4-2.83A42.35,42.35,0,0,0,76,99.35l1.14,2.59a44,44,0,0,0,10-5.93l-1.73-2.23A41.81,41.81,0,0,0,93.1,86l2.29,1.72a48.4,48.4,0,0,0,5.78-10.13l-2.62-1A42.54,42.54,0,0,0,101.3,66l2.8.38A44.43,44.43,0,0,0,104,54.74h0l-2.84.4A42.34,42.34,0,0,0,98.29,44.6l2.59-1.14a44.79,44.79,0,0,0-5.93-10l-2.23,1.73a41.56,41.56,0,0,0-7.79-7.66l1.73-2.29a48.66,48.66,0,0,0-10.13-5.78l-1,2.62a42.47,42.47,0,0,0-10.55-2.75l.38-2.81a45,45,0,0,0-11.64.09l.4,2.84h0A42.12,42.12,0,0,0,43.54,22.3l-1.15-2.59a44,44,0,0,0-10,5.93l1.72,2.23a42.12,42.12,0,0,0-7.66,7.78l-2.29-1.72a48.37,48.37,0,0,0-5.77,10.13l2.62,1a42.56,42.56,0,0,0-2.76,10.56l-2.8-.38a44.87,44.87,0,0,0,.08,11.63ZM54.21,21.36A39.71,39.71,0,1,1,20.42,66.22,39.73,39.73,0,0,1,54.21,21.36Z"/><g id="Corners"><path class="cls-2" d="M95.49,32.72,107,23.22A59.5,59.5,0,0,0,96.3,12.85l-9,11.94Z"/><path class="cls-2" d="M102,42.92l2.66,11.74,14.84-2.09c0-.16,0-.33,0-.49h0A59.58,59.58,0,0,0,115.2,37Z"/><path class="cls-2" d="M.46,53.18l14.37,2,2.43-11.45L4.58,37.64A59.3,59.3,0,0,0,.46,53.18Z"/><path class="cls-2" d="M23.16,33.15l8.34-7.78L23,13.57A59.51,59.51,0,0,0,12.54,24Z"/><path class="cls-2" d="M83,115.47,77,102l-11,3.54L68.7,119.3h.09A59.6,59.6,0,0,0,83,115.47Z"/><path class="cls-2" d="M37.86,115.93a59,59,0,0,0,15.49,3.76l.83-14.5-11.45-2.43Z"/></g><path id="Shadow" class="cls-5" d="M68.06,119.81c32.61-4.59,56.4-34.91,51.8-67.58S84-4,51.28.57-4,36.33.62,69A59.81,59.81,0,0,0,68.06,119.81ZM54.21,21.36A39.71,39.71,0,1,1,20.42,66.22,39.73,39.73,0,0,1,54.21,21.36Z"/></g><g id="Logo"><g id="Layer5_0_FILL" data-name="Layer5 0 FILL"><path class="cls-6" d="M97.93,49.63c-.22-.75-.46-1.5-.72-2.23a37.15,37.15,0,0,0-1.95-4.54c-.33-.64-.68-1.28-1.05-1.9a41.62,41.62,0,0,0-6.46-8.27A38.55,38.55,0,0,0,59.5,21h0A38.47,38.47,0,0,0,31.24,32.69,38.51,38.51,0,0,0,19.53,60.94h0A38.55,38.55,0,0,0,31.24,89.2c.72.72,1.46,1.41,2.21,2.06a37.75,37.75,0,0,0,17.67,8.83,42.29,42.29,0,0,0,8.37.81h.18A38.48,38.48,0,0,0,87.75,89.2,41.51,41.51,0,0,0,94.15,81a37,37,0,0,0,2.69-5.52,39,39,0,0,0,2.53-11.91c0-.82.08-1.64.08-2.47v-.18a41.92,41.92,0,0,0-.91-8.86c-.09-.43-.19-.87-.3-1.3S98,50,97.93,49.63Z"/></g><g id="Layer0_0_FILL" data-name="Layer0 0 FILL"><path class="cls-3" d="M41.46,66.67h-.34A13.56,13.56,0,0,0,31,70.48c-.39.37-.76.75-1.1,1.14a13.55,13.55,0,0,0-3.36,8.69s0,0,0,0v.45a15.53,15.53,0,0,0,.29,3.38A43.46,43.46,0,0,0,37.24,94.3,38.22,38.22,0,0,0,41.84,97a23.18,23.18,0,0,0,2.92.22,28.75,28.75,0,0,0,6.37-.55,22.22,22.22,0,0,0,3.74-1.11,18.91,18.91,0,0,0,6.5-4.33q5.87-6,5.87-16.21a23.71,23.71,0,0,0-7.25-17,23.89,23.89,0,0,0-17-7.2,30.69,30.69,0,0,0-12.8,1.95c-.89.34-1.77.73-2.62,1.15a30.31,30.31,0,0,0-8.08,5.77l0,0c0,.38,0,.76,0,1.15,0,.77,0,1.53.06,2.29,0,.59.07,1.17.13,1.75a41,41,0,0,0,.77,5c.19-.39.39-.76.6-1.14a22.52,22.52,0,0,1,6.63-7.37l.35-.25a22.71,22.71,0,0,1,13.53-4.09,17.71,17.71,0,0,1,12.79,4.74,17.57,17.57,0,0,1,5.9,12.32q0,14.3-13.28,16.44a14.23,14.23,0,0,1-1.69.17,12.22,12.22,0,0,1-7-2,8.89,8.89,0,0,1-4.52-8.45,7.73,7.73,0,0,1,.13-1.09A6.37,6.37,0,0,1,35.7,76a6.28,6.28,0,0,1,4.52-1.81h.42a4.38,4.38,0,0,0-1.19,3.33A4.54,4.54,0,0,0,41,80.71a4.55,4.55,0,0,0,4.21,1.07,7.22,7.22,0,0,0,4.29-2.57,7.05,7.05,0,0,0,1.61-4.72,8.77,8.77,0,0,0-9.6-7.82m58.07-5.73A38.58,38.58,0,0,0,87.81,32.63,38.59,38.59,0,0,0,59.49,20.9,38.58,38.58,0,0,0,31.18,32.63c-.31.31-.62.63-.92.95a41.85,41.85,0,0,0-5.07,6.53c-.24.4-.49.8-.72,1.21-.12.22-.25.44-.36.66-.33.59-.63,1.18-.91,1.77-.41.85-.78,1.7-1.11,2.57s-.63,1.68-.89,2.54l-.24.83a37.87,37.87,0,0,1,8.24-4.32l1.52-.53A37.77,37.77,0,0,1,43.2,42.92q15,0,24.24,9.32,9,9,9,22.79a28.32,28.32,0,0,1-3.64,15.48,29.42,29.42,0,0,1-4.49,6.09c-.3.3-.6.6-.91.89a27.87,27.87,0,0,1-4.33,3.34c1.21-.09,2.4-.24,3.57-.43l.35-.06,1.32-.26a37.69,37.69,0,0,0,6.33-1.93l1.52-.66a36.67,36.67,0,0,0,4-2.15,41.87,41.87,0,0,0,7.67-6.09c.53-.53,1-1.08,1.54-1.63.66-.72,1.28-1.45,1.87-2.2A38.34,38.34,0,0,0,99.53,60.94Z"/></g></g></g></g></g></g></g></svg>