<svg xmlns="http://www.w3.org/2000/svg" xmlns:xlink="http://www.w3.org/1999/xlink" viewBox="0 0 120.4 120.36"><defs><style>.cls-1{isolation:isolate;}.cls-2{fill:#c4c1bf;}.cls-3{fill:#48a6b7;}.cls-4{fill:#268796;}.cls-5{opacity:0.57;mix-blend-mode:multiply;fill:url(#radial-gradient);}.cls-6{opacity:0.99;}.cls-7{fill:#dbd9d2;}</style><radialGradient id="radial-gradient" cx="60.21" cy="60.18" r="60.18" gradientUnits="userSpaceOnUse"><stop offset="0" stop-color="#1f1a1e"/><stop offset="0.01" stop-color="#454145"/><stop offset="0.03" stop-color="#a5a3a5"/><stop offset="0.05" stop-color="#fff"/><stop offset="0.14" stop-color="#fdfcfc"/><stop offset="0.2" stop-color="#f4f4f4" stop-opacity="0.99"/><stop offset="0.25" stop-color="#e6e6e6" stop-opacity="0.98"/><stop offset="0.29" stop-color="#d2d1d2" stop-opacity="0.96"/><stop offset="0.33" stop-color="#b9b7b8" stop-opacity="0.94"/><stop offset="0.37" stop-color="#999799" stop-opacity="0.91"/><stop offset="0.4" stop-color="#737073" stop-opacity="0.88"/><stop offset="0.44" stop-color="#494548" stop-opacity="0.84"/><stop offset="0.47" stop-color="#191418" stop-opacity="0.8"/><stop offset="0.47" stop-color="#181317" stop-opacity="0.8"/><stop offset="0.51" stop-color="#383337" stop-opacity="0.83"/><stop offset="0.6" stop-color="#747073" stop-opacity="0.88"/><stop offset="0.69" stop-color="#a5a3a5" stop-opacity="0.92"/><stop offset="0.78" stop-color="#cccbcc" stop-opacity="0.95"/><stop offset="0.85" stop-color="#e8e8e8" stop-opacity="0.97"/><stop offset="0.92" stop-color="#f9f9f9" stop-opacity="0.99"/><stop offset="0.97" stop-color="#fff" stop-opacity="0.99"/><stop offset="0.99" stop-color="#696668"/><stop offset="1" stop-color="#181317"/></radialGradient></defs><title>AS_Maya</title><g class="cls-1"><g id="Layer_2" data-name="Layer 2"><g id="Desktop_S1"><g id="SoftwareChips"><g id="MayaChip"><g id="Shape"><rect id="MBG" class="cls-2" y="0.88" width="120" height="119" rx="59.5" transform="translate(-12.8 16.27) rotate(-13.97)"/><rect id="MBG-2" data-name="MBG" class="cls-3" x="19.1" y="20.66" width="81" height="80.32" rx="40.16" transform="translate(-12.92 16.19) rotate(-13.97)"/><path class="cls-4" d="M74.18,118.59c32-8,52.46-40.58,44.5-72.6S77.13-6.23,45.11,1.74-6.14,43,1.82,75.06A59.82,59.82,0,0,0,74.18,118.59ZM48.71,16.21A45.79,45.79,0,1,1,15.33,71.7,45.85,45.85,0,0,1,48.71,16.21ZM19.19,70.74h0a42,42,0,0,0,4,10.18l-2.46,1.41a44.15,44.15,0,0,0,6.94,9.36l2-1.94a41.89,41.89,0,0,0,8.53,6.8L36.75,99a48,48,0,0,0,10.67,4.69l.77-2.71A42.36,42.36,0,0,0,59,102.63l-.09,2.83a44.9,44.9,0,0,0,11.57-1.29h0l-.69-2.78a42.69,42.69,0,0,0,10.18-4l1.4,2.46a44.35,44.35,0,0,0,9.37-6.95l-1.95-2a41.92,41.92,0,0,0,6.81-8.54L98,83.84a48.79,48.79,0,0,0,4.69-10.68L100,72.39a42.73,42.73,0,0,0,1.64-10.78l2.83.09a45.39,45.39,0,0,0-1.29-11.57h0l-2.79.69a42.27,42.27,0,0,0-4-10.18l2.46-1.4A44.22,44.22,0,0,0,92,29.87l-2,1.95A42.06,42.06,0,0,0,81.37,25l1.48-2.46a48.85,48.85,0,0,0-10.68-4.69l-.76,2.71a42.8,42.8,0,0,0-10.78-1.64l.08-2.83a44.84,44.84,0,0,0-11.56,1.3l.69,2.78h0a42.42,42.42,0,0,0-10.18,4l-1.4-2.46a44.3,44.3,0,0,0-9.37,6.94l1.95,2A41.39,41.39,0,0,0,24,39.21l-2.46-1.48a48.38,48.38,0,0,0-4.69,10.68l2.71.76A42.88,42.88,0,0,0,18,60l-2.83-.09a44.82,44.82,0,0,0,1.29,11.56Zm31-48.63A39.71,39.71,0,1,1,21.23,70.24,39.73,39.73,0,0,1,50.18,22.11Z"/><g id="Corners"><path class="cls-2" d="M92.41,29.12l10.44-10.64a59.37,59.37,0,0,0-11.7-9.21l-7.7,12.81Z"/><path class="cls-2" d="M99.92,38.59,103.79,50l14.54-3.61c0-.17-.07-.33-.11-.49h0a59.42,59.42,0,0,0-5.76-14.6Z"/><path class="cls-2" d="M0,59.34l14.5.5L15.75,48.2,2.51,43.45A59.45,59.45,0,0,0,0,59.34Z"/><path class="cls-2" d="M20.53,37.05,28,28.45,18.29,17.6A59.73,59.73,0,0,0,9,29.07Z"/><path class="cls-2" d="M88.57,112.72,81.18,99.93l-10.6,4.67L74.76,118l.09,0A59.29,59.29,0,0,0,88.57,112.72Z"/><path class="cls-2" d="M43.74,117.86A59.09,59.09,0,0,0,59.53,120l-.67-14.51-11.64-1.23Z"/></g><path id="Shadow" class="cls-5" d="M74.18,118.59c32-8,52.46-40.58,44.5-72.6S77.13-6.23,45.11,1.74-6.14,43,1.82,75.06A59.82,59.82,0,0,0,74.18,118.59Zm-24-96.48A39.71,39.71,0,1,1,21.23,70.24,39.73,39.73,0,0,1,50.18,22.11Z"/></g><g id="Title" class="cls-6"><path class="cls-7" d="M40.57,40.25H52.73C55.32,50.48,57.84,60.73,60.46,71q4.07-15.35,8.09-30.69c3.94,0,7.87,0,11.81,0,0,12.83,0,25.67,0,38.5H71.15c0-8.14,0-16.28,0-24.42C69,62.49,66.86,70.65,64.69,78.79c-3,0-6,0-9,0-2.28-8.5-4.41-17-6.76-25.52q0,12.77,0,25.52H40.56Q40.56,59.52,40.57,40.25Z"/></g></g></g></g></g></g></svg>