<svg xmlns="http://www.w3.org/2000/svg" xmlns:xlink="http://www.w3.org/1999/xlink" viewBox="0 0 120.43 120.4"><defs><style>.cls-1{isolation:isolate;}.cls-2{fill:#c4c1bf;}.cls-3{fill:#181317;}.cls-4{fill:#c79030;}.cls-5{opacity:0.57;mix-blend-mode:multiply;fill:url(#radial-gradient);}.cls-6{fill:#c6913c;}</style><radialGradient id="radial-gradient" cx="9.02" cy="121.05" r="60.18" gradientTransform="translate(66.12 -60.96) rotate(7.04)" gradientUnits="userSpaceOnUse"><stop offset="0" stop-color="#1f1a1e"/><stop offset="0.01" stop-color="#454145"/><stop offset="0.03" stop-color="#a5a3a5"/><stop offset="0.05" stop-color="#fff"/><stop offset="0.14" stop-color="#fdfcfc"/><stop offset="0.2" stop-color="#f4f4f4" stop-opacity="0.99"/><stop offset="0.25" stop-color="#e6e6e6" stop-opacity="0.98"/><stop offset="0.29" stop-color="#d2d1d2" stop-opacity="0.96"/><stop offset="0.33" stop-color="#b9b7b8" stop-opacity="0.94"/><stop offset="0.37" stop-color="#999799" stop-opacity="0.91"/><stop offset="0.4" stop-color="#737073" stop-opacity="0.88"/><stop offset="0.44" stop-color="#494548" stop-opacity="0.84"/><stop offset="0.47" stop-color="#191418" stop-opacity="0.8"/><stop offset="0.47" stop-color="#181317" stop-opacity="0.8"/><stop offset="0.51" stop-color="#383337" stop-opacity="0.83"/><stop offset="0.6" stop-color="#747073" stop-opacity="0.88"/><stop offset="0.69" stop-color="#a5a3a5" stop-opacity="0.92"/><stop offset="0.78" stop-color="#cccbcc" stop-opacity="0.95"/><stop offset="0.85" stop-color="#e8e8e8" stop-opacity="0.97"/><stop offset="0.92" stop-color="#f9f9f9" stop-opacity="0.99"/><stop offset="0.97" stop-color="#fff" stop-opacity="0.99"/><stop offset="0.99" stop-color="#696668"/><stop offset="1" stop-color="#181317"/></radialGradient></defs><title>AS_Nuke</title><g class="cls-1"><g id="Layer_2" data-name="Layer 2"><g id="Desktop_S1"><g id="SoftwareChips"><g id="NukeChip"><g id="Shape"><rect id="MBG" class="cls-2" y="0.95" width="120" height="119" rx="59.5" transform="translate(-6.86 7.69) rotate(-6.93)"/><rect id="MBG-2" data-name="MBG" class="cls-3" x="19.05" y="20.68" width="81" height="80.32" rx="40.16" transform="translate(-6.91 7.63) rotate(-6.93)"/><path class="cls-4" d="M67,120c32.68-4,57-33.84,53.05-66.6S85.17-3.55,52.41.43-3.52,35.14.47,67.9A59.8,59.8,0,0,0,67,120ZM54.21,15.23a45.8,45.8,0,1,1-39.93,51A45.88,45.88,0,0,1,54.21,15.23Zm-36,50.51h0a42.21,42.21,0,0,0,2.7,10.59l-2.61,1.09a44.18,44.18,0,0,0,5.74,10.15l2.26-1.68A42.1,42.1,0,0,0,34,93.69L32.19,96a49.2,49.2,0,0,0,10,6l1.09-2.6a42.4,42.4,0,0,0,10.51,3l-.44,2.8A44.83,44.83,0,0,0,65,105.2h0l-.35-2.85a42.2,42.2,0,0,0,10.59-2.69l1.09,2.61a44.34,44.34,0,0,0,10.15-5.74l-1.68-2.26a42.1,42.1,0,0,0,7.8-7.64l2.26,1.76a47.79,47.79,0,0,0,6-10l-2.59-1.09a43.08,43.08,0,0,0,3-10.5l2.8.43a45.2,45.2,0,0,0,.13-11.63h0l-2.85.34a42.2,42.2,0,0,0-2.69-10.59l2.61-1.09a44.18,44.18,0,0,0-5.74-10.15l-2.26,1.69A41.85,41.85,0,0,0,85.55,28l1.77-2.25a48.79,48.79,0,0,0-10-6l-1.1,2.6a42.21,42.21,0,0,0-10.5-3l.44-2.8a44.83,44.83,0,0,0-11.64-.13l.35,2.84h0A42.55,42.55,0,0,0,44.26,22l-1.1-2.62A44.31,44.31,0,0,0,33,25.14L34.7,27.4A41.79,41.79,0,0,0,26.9,35l-2.26-1.77a48.26,48.26,0,0,0-6,10l2.6,1.09a42.76,42.76,0,0,0-2.95,10.5l-2.8-.43a45.27,45.27,0,0,0-.13,11.64ZM54.94,21.27A39.71,39.71,0,1,1,20.32,65.49,39.74,39.74,0,0,1,54.94,21.27Z"/><g id="Corners"><path class="cls-2" d="M96,33.41l11.66-9.29A59.58,59.58,0,0,0,97.18,13.55L88,25.32Z"/><path class="cls-2" d="M102.29,43.72l2.44,11.8,14.88-1.81c0-.17,0-.34,0-.5h0A59.42,59.42,0,0,0,115.63,38Z"/><path class="cls-2" d="M.6,52.07l14.34,2.28,2.64-11.41L5,36.61A59.41,59.41,0,0,0,.6,52.07Z"/><path class="cls-2" d="M23.68,32.47l8.48-7.62-8.31-12A59.9,59.9,0,0,0,13.23,23.13Z"/><path class="cls-2" d="M81.94,115.9l-5.77-13.59-11.08,3.33,2.5,13.83h.09A59.72,59.72,0,0,0,81.94,115.9Z"/><path class="cls-2" d="M36.82,115.51a59.16,59.16,0,0,0,15.41,4.06l1.11-14.49-11.4-2.64Z"/></g><path id="Shadow" class="cls-5" d="M67,120c32.68-4,57-33.84,53.05-66.6S85.17-3.55,52.41.43-3.52,35.14.47,67.9A59.8,59.8,0,0,0,67,120Zm-12-98.69A39.71,39.71,0,1,1,20.32,65.49,39.74,39.74,0,0,1,54.94,21.27Z"/></g><g id="Logo"><path class="cls-6" d="M61.43,20.94A40.51,40.51,0,1,1,19.21,59.66v-.08A40.52,40.52,0,0,1,61.43,20.94Zm-.08,4.18A36.33,36.33,0,1,0,96,63.09V63A36.33,36.33,0,0,0,61.35,25.12Zm19.2,28.39,8.1.15A2.12,2.12,0,0,0,91,50.76a32.31,32.31,0,0,0-6.9-11.71l0,0A33.88,33.88,0,0,0,72.9,31a2.06,2.06,0,0,0-3.05,2c-.2,2.71-.64,8.08-.64,8.08s0,2.59-2.16,2.55c-2.75,0-5-.24-5-.24a7.81,7.81,0,0,1-4.21-1.92l-8.17-9a3.67,3.67,0,0,0-4.74-.75A32.94,32.94,0,0,0,28.66,49.68c-.91,2.4,1.08,2.74,2.42,2.77l20.25.38A7,7,0,0,1,57,55.05c2.6,2.83,4.41,4.71,4.41,4.71s1.58,1.85,4.16,4.66a7,7,0,0,1,1.73,5.82S65.9,89.61,65.89,90.47c-.12,1.34.06,3.36,2.54,2.67A33,33,0,0,0,87.68,78.56a3.68,3.68,0,0,0-.32-4.79l-8.17-9a7.77,7.77,0,0,1-1.59-4.36s0-2.3.2-5c.19-2.17,2.75-1.92,2.75-1.92ZM72.49,58c-1.64,1.55-5,.68-7.46-2s-3-6.14-1.38-7.64,5.09-.71,7.52,1.95S74.12,56.45,72.49,58Z"/></g></g></g></g></g></g></svg>