<svg xmlns="http://www.w3.org/2000/svg" xmlns:xlink="http://www.w3.org/1999/xlink" viewBox="0 0 120.38 120.4"><defs><style>.cls-1{isolation:isolate;}.cls-2{fill:#c4c1bf;}.cls-3{fill:#c1bfb8;}.cls-4{fill:#696556;}.cls-5{opacity:0.57;mix-blend-mode:multiply;fill:url(#radial-gradient);}.cls-6{fill:#dbd9d2;}.cls-7{fill:#181317;}</style><radialGradient id="radial-gradient" cx="-58.17" cy="11.58" r="60.18" gradientTransform="translate(118.43 72.18) rotate(22.69)" gradientUnits="userSpaceOnUse"><stop offset="0" stop-color="#1f1a1e"/><stop offset="0.01" stop-color="#454145"/><stop offset="0.03" stop-color="#a5a3a5"/><stop offset="0.05" stop-color="#fff"/><stop offset="0.14" stop-color="#fdfcfc"/><stop offset="0.2" stop-color="#f4f4f4" stop-opacity="0.99"/><stop offset="0.25" stop-color="#e6e6e6" stop-opacity="0.98"/><stop offset="0.29" stop-color="#d2d1d2" stop-opacity="0.96"/><stop offset="0.33" stop-color="#b9b7b8" stop-opacity="0.94"/><stop offset="0.37" stop-color="#999799" stop-opacity="0.91"/><stop offset="0.4" stop-color="#737073" stop-opacity="0.88"/><stop offset="0.44" stop-color="#494548" stop-opacity="0.84"/><stop offset="0.47" stop-color="#191418" stop-opacity="0.8"/><stop offset="0.47" stop-color="#181317" stop-opacity="0.8"/><stop offset="0.51" stop-color="#383337" stop-opacity="0.83"/><stop offset="0.6" stop-color="#747073" stop-opacity="0.88"/><stop offset="0.69" stop-color="#a5a3a5" stop-opacity="0.92"/><stop offset="0.78" stop-color="#cccbcc" stop-opacity="0.95"/><stop offset="0.85" stop-color="#e8e8e8" stop-opacity="0.97"/><stop offset="0.92" stop-color="#f9f9f9" stop-opacity="0.99"/><stop offset="0.97" stop-color="#fff" stop-opacity="0.99"/><stop offset="0.99" stop-color="#696668"/><stop offset="1" stop-color="#181317"/></radialGradient></defs><title>AS_Notion</title><g class="cls-1"><g id="Layer_2" data-name="Layer 2"><g id="Desktop_S1"><g id="SoftwareChips"><g id="NotionChip"><g id="Shape"><rect id="MBG" class="cls-2" x="0.52" y="0.52" width="119" height="120" rx="59.5" transform="matrix(0.15, -0.99, 0.99, 0.15, -8.9, 110.67)"/><rect id="MBG-2" data-name="MBG" class="cls-3" x="19.31" y="20.28" width="80.32" height="81" rx="40.16" transform="translate(-9.62 110.35) rotate(-81.28)"/><path class="cls-4" d="M50.65,119.7c32.55,5,64.05-17.2,69.05-49.82S101.52,5.68,68.9.67,5.68,19,.68,51.63A59.82,59.82,0,0,0,50.65,119.7Zm16-104.29A45.79,45.79,0,1,1,14.43,53.74,45.86,45.86,0,0,1,66.64,15.41ZM18.37,54.34h0a42.33,42.33,0,0,0-.26,10.93l-2.81.34a44,44,0,0,0,2.79,11.32l2.63-1A42.14,42.14,0,0,0,26,85.5l-2.31,1.69a48.29,48.29,0,0,0,8,8.45l1.75-2.2a42.83,42.83,0,0,0,9.32,5.67l-1.17,2.58A45.17,45.17,0,0,0,52.77,105h0l.43-2.84a42.26,42.26,0,0,0,10.92.26l.35,2.81a44,44,0,0,0,11.32-2.79l-1-2.63a41.75,41.75,0,0,0,9.58-5.25l1.69,2.31a48.29,48.29,0,0,0,8.45-8L92.29,87A42.48,42.48,0,0,0,98,77.72l2.58,1.18a45.28,45.28,0,0,0,3.26-11.17h0L101,67.29a42.26,42.26,0,0,0,.26-10.92l2.81-.35a44.06,44.06,0,0,0-2.79-11.32l-2.63,1a42.28,42.28,0,0,0-5.25-9.57l2.31-1.7a48.65,48.65,0,0,0-8-8.45L85.9,28.2a42.45,42.45,0,0,0-9.32-5.67L77.76,20a45,45,0,0,0-11.17-3.27l-.44,2.83h0a42.64,42.64,0,0,0-10.92-.26l-.35-2.81a44.37,44.37,0,0,0-11.32,2.79l1,2.63A42.07,42.07,0,0,0,35,27.11L33.3,24.8a48.29,48.29,0,0,0-8.45,8l2.21,1.76a42,42,0,0,0-5.67,9.31l-2.58-1.17a44.74,44.74,0,0,0-3.27,11.17ZM65.72,21.43A39.71,39.71,0,1,1,20.44,54.66,39.72,39.72,0,0,1,65.72,21.43Z"/><g id="Corners"><path class="cls-2" d="M102,44.19l13.73-5.8a60.38,60.38,0,0,0-7.23-13L96.42,34.23Z"/><path class="cls-2" d="M105.25,55.82l-.83,12,14.82,2.28c0-.17.06-.33.08-.5h0a59.44,59.44,0,0,0,.32-15.68Z"/><path class="cls-2" d="M5.08,36.43l13.19,6,5.62-10.26L13.51,22.73A59.31,59.31,0,0,0,5.08,36.43Z"/><path class="cls-2" d="M32.6,23.78l10.22-5.06L38,5a59.72,59.72,0,0,0-13,7Z"/><path class="cls-2" d="M66.19,119.83,64.3,105.18l-11.58.22-1.32,14,.09,0A59.58,59.58,0,0,0,66.19,119.83Z"/><path class="cls-2" d="M22.84,107.29a59.31,59.31,0,0,0,13.75,8.06l5-13.65L31.3,96.08Z"/></g><path id="Shadow" class="cls-5" d="M50.65,119.7c32.55,5,64.05-17.2,69.05-49.82S101.52,5.68,68.9.67,5.68,19,.68,51.63A59.82,59.82,0,0,0,50.65,119.7ZM65.72,21.43A39.71,39.71,0,1,1,20.44,54.66,39.72,39.72,0,0,1,65.72,21.43Z"/></g><g id="Outlined_Mnemonics_Logos" data-name="Outlined Mnemonics Logos"><path class="cls-6" d="M41.43,38.66l24.28-1.79c3-.26,3.75-.08,5.62,1.28l7.75,5.46c1.28.94,1.71,1.19,1.71,2.22V75.77c0,1.88-.68,3-3.07,3.16l-28.2,1.71c-1.79.08-2.64-.17-3.58-1.37l-5.7-7.42a5.71,5.71,0,0,1-1.45-3.59V41.65A2.67,2.67,0,0,1,41.43,38.66Z"/><path class="cls-7" d="M66.27,35.34l-26.59,2a2.91,2.91,0,0,0-2.89,3.26V69.73a6.29,6.29,0,0,0,1.58,3.92l6.25,8.13c1,1.31,2,1.59,3.93,1.5l30.88-1.87C82,81.22,82.79,80,82.79,78V45.15c0-1.06-.42-1.37-1.66-2.27l-8.7-6.14c-2.05-1.49-2.89-1.68-6.16-1.4Zm-17,9.27c-2.52.17-3.09.21-4.52-1l-3.64-2.9c-.37-.37-.19-.84.75-.93L67.39,38a5.27,5.27,0,0,1,4.11,1.21l4.38,3.18c.19.09.65.65.09.65l-26.4,1.59-.33,0ZM46.31,77.67V49.83c0-1.22.37-1.78,1.49-1.87l30.32-1.78c1-.09,1.49.56,1.49,1.77V75.61c0,1.22-.18,2.25-1.86,2.34l-29,1.68c-1.68.09-2.42-.47-2.42-2ZM75,51.32c.18.84,0,1.68-.84,1.78l-1.4.27V73.93a7.34,7.34,0,0,1-3.27,1c-1.49,0-1.86-.47-3-1.87L57.31,58.7V72.62l2.9.66s0,1.68-2.34,1.68l-6.43.37a1.2,1.2,0,0,1,.65-1.49l1.68-.47V55l-2.33-.19A1.75,1.75,0,0,1,53,52.63l6.91-.47,9.51,14.58V53.84L67,53.56a1.58,1.58,0,0,1,1.49-1.87L75,51.32Z"/></g></g></g></g></g></g></svg>