<svg xmlns="http://www.w3.org/2000/svg" xmlns:xlink="http://www.w3.org/1999/xlink" viewBox="0 0 120.41 120.41"><defs><style>.cls-1{isolation:isolate;}.cls-2{fill:#c4c1bf;}.cls-3{fill:#062136;}.cls-4{fill:#153e5e;}.cls-5{opacity:0.57;mix-blend-mode:multiply;fill:url(#radial-gradient);}.cls-6{fill:#4eb4ff;}</style><radialGradient id="radial-gradient" cx="92.69" cy="400.55" r="60.18" gradientTransform="translate(87 -349.88) rotate(16.76)" gradientUnits="userSpaceOnUse"><stop offset="0" stop-color="#1f1a1e"/><stop offset="0.01" stop-color="#454145"/><stop offset="0.03" stop-color="#a5a3a5"/><stop offset="0.05" stop-color="#fff"/><stop offset="0.14" stop-color="#fdfcfc"/><stop offset="0.2" stop-color="#f4f4f4" stop-opacity="0.99"/><stop offset="0.25" stop-color="#e6e6e6" stop-opacity="0.98"/><stop offset="0.29" stop-color="#d2d1d2" stop-opacity="0.96"/><stop offset="0.33" stop-color="#b9b7b8" stop-opacity="0.94"/><stop offset="0.37" stop-color="#999799" stop-opacity="0.91"/><stop offset="0.4" stop-color="#737073" stop-opacity="0.88"/><stop offset="0.44" stop-color="#494548" stop-opacity="0.84"/><stop offset="0.47" stop-color="#191418" stop-opacity="0.8"/><stop offset="0.47" stop-color="#181317" stop-opacity="0.8"/><stop offset="0.51" stop-color="#383337" stop-opacity="0.83"/><stop offset="0.6" stop-color="#747073" stop-opacity="0.88"/><stop offset="0.69" stop-color="#a5a3a5" stop-opacity="0.92"/><stop offset="0.78" stop-color="#cccbcc" stop-opacity="0.95"/><stop offset="0.85" stop-color="#e8e8e8" stop-opacity="0.97"/><stop offset="0.92" stop-color="#f9f9f9" stop-opacity="0.99"/><stop offset="0.97" stop-color="#fff" stop-opacity="0.99"/><stop offset="0.99" stop-color="#696668"/><stop offset="1" stop-color="#181317"/></radialGradient></defs><title>AS_Photoshop</title><g class="cls-1"><g id="Layer_2" data-name="Layer 2"><g id="Desktop_S1"><g id="SoftwareChips"><g id="PhotoshopChip"><g id="Shape"><rect id="MBG" class="cls-2" x="0.5" y="0.51" width="119" height="120" rx="59.5" transform="translate(-3.35 117.51) rotate(-87.22)"/><rect id="MBG-2" data-name="MBG" class="cls-3" x="19.33" y="20.32" width="80.32" height="81" rx="40.16" transform="translate(-4.15 117.29) rotate(-87.22)"/><path class="cls-4" d="M56.8,120.34c32.89,1.6,61.94-23.73,63.54-56.69S95.61,1.67,62.65.07,1.67,24.84.07,57.81A59.8,59.8,0,0,0,56.8,120.34ZM61.93,15A45.79,45.79,0,1,1,14,58.48,45.86,45.86,0,0,1,61.93,15Zm-44,43.71h0a42.49,42.49,0,0,0,.87,10.9l-2.76.63a44.29,44.29,0,0,0,3.95,11l2.51-1.27a42.2,42.2,0,0,0,6.21,9L26.6,90.8a48.55,48.55,0,0,0,8.87,7.58L37,96a42.43,42.43,0,0,0,9.85,4.68l-.9,2.68a44.75,44.75,0,0,0,11.45,2.1h0l.14-2.86a42.45,42.45,0,0,0,10.89-.87l.63,2.76a44.29,44.29,0,0,0,11-3.95L78.75,98a42.2,42.2,0,0,0,9-6.21l1.93,2.12a48.89,48.89,0,0,0,7.57-8.87l-2.38-1.52a42.43,42.43,0,0,0,4.68-9.85l2.69.9a45.18,45.18,0,0,0,2.09-11.45h0L101.45,63a42.45,42.45,0,0,0-.87-10.89l2.76-.63a43.9,43.9,0,0,0-4-11l-2.51,1.27a41.84,41.84,0,0,0-6.21-9l2.12-1.93a48.89,48.89,0,0,0-8.87-7.57L82.4,25.69A42.24,42.24,0,0,0,72.55,21l.9-2.69A45.1,45.1,0,0,0,62,16.23l-.13,2.86h0A42.74,42.74,0,0,0,51,20l-.63-2.76a44.29,44.29,0,0,0-11,3.95l1.27,2.51a41.84,41.84,0,0,0-9,6.21l-1.92-2.12a48.55,48.55,0,0,0-7.58,8.87l2.38,1.52A42.24,42.24,0,0,0,19.86,48l-2.68-.9a44.67,44.67,0,0,0-2.1,11.45ZM61.63,21A39.71,39.71,0,1,1,20,58.78,39.73,39.73,0,0,1,61.63,21Z"/><g id="Corners"><path class="cls-2" d="M100.05,39.93l13.06-7.18a59,59,0,0,0-8.54-12.19L93.5,30.6Z"/><path class="cls-2" d="M104.51,51.16l.42,12,15,.72c0-.16,0-.33,0-.49h0a59.1,59.1,0,0,0-1.31-15.64Z"/><path class="cls-2" d="M2.87,42.23l13.75,4.66L21.14,36.1,9.83,27.73A59.49,59.49,0,0,0,2.87,42.23Z"/><path class="cls-2" d="M28.93,26.8l9.65-6.08L32.39,7.53a59.69,59.69,0,0,0-12.18,8.3Z"/><path class="cls-2" d="M72.27,118.87l-3.39-14.38-11.49,1.42.13,14h.09A59.77,59.77,0,0,0,72.27,118.87Z"/><path class="cls-2" d="M27.87,110.87a58.81,58.81,0,0,0,14.5,6.6l3.54-14.09-10.8-4.53Z"/></g><path id="Shadow" class="cls-5" d="M56.8,120.34c32.89,1.6,61.94-23.73,63.54-56.69S95.61,1.67,62.65.07,1.67,24.84.07,57.81A59.8,59.8,0,0,0,56.8,120.34ZM61.63,21A39.71,39.71,0,1,1,20,58.78,39.73,39.73,0,0,1,61.63,21Z"/></g><g id="Logo"><g id="Outlined_Mnemonics_Logos" data-name="Outlined Mnemonics Logos"><g id="Ps"><path class="cls-6" d="M38.07,76.67l-.65-32.1c0-.22.09-.34.3-.35.53,0,1,0,1.75-.07S41,44.09,41.84,44s1.74-.06,2.71-.11,1.9-.07,2.84-.09a18.35,18.35,0,0,1,6.44.83,11.22,11.22,0,0,1,4.24,2.48,9.79,9.79,0,0,1,2.34,3.51,11.58,11.58,0,0,1,.8,4,11.12,11.12,0,0,1-1.73,6.68,10.65,10.65,0,0,1-4.95,3.9,20,20,0,0,1-7,1.21c-.75,0-1.25,0-1.56,0s-.75,0-1.34,0l.2,10a.4.4,0,0,1-.34.44h-.12l-5.93.12C38.2,77.07,38.08,77,38.07,76.67Zm6.26-26.56.22,10.48c.43,0,.84,0,1.21,0l1.66,0A11.41,11.41,0,0,0,51,60a5.3,5.3,0,0,0,2.53-1.71,4.8,4.8,0,0,0,.9-3.23,5.11,5.11,0,0,0-.78-2.76,4.45,4.45,0,0,0-2.21-1.73,9.06,9.06,0,0,0-3.7-.55c-.81,0-1.53,0-2.12.07a6.6,6.6,0,0,0-1.28.06Z"/><path class="cls-6" d="M80.75,58a11.22,11.22,0,0,0-3-1,15.88,15.88,0,0,0-3.51-.33,6.14,6.14,0,0,0-1.86.25,1.47,1.47,0,0,0-1.19,1.49,1.46,1.46,0,0,0,.33.81,3.68,3.68,0,0,0,1.08.82c.72.36,1.48.69,2.23,1a23,23,0,0,1,4.85,2.18,7.38,7.38,0,0,1,2.52,2.54,6.7,6.7,0,0,1,.78,3.2,7.31,7.31,0,0,1-1.13,4.17,7.83,7.83,0,0,1-3.44,2.85A14.28,14.28,0,0,1,72.78,77a21.57,21.57,0,0,1-4.25-.32,12.32,12.32,0,0,1-3.21-.93.61.61,0,0,1-.35-.59l-.11-5.42a.36.36,0,0,1,.12-.29c.09-.06.18,0,.28,0A13.59,13.59,0,0,0,69.16,71a14.2,14.2,0,0,0,3.69.39,6,6,0,0,0,2.58-.49,1.45,1.45,0,0,0,.81-1.33,1.66,1.66,0,0,0-.77-1.23,13.55,13.55,0,0,0-3.09-1.4,19,19,0,0,1-4.47-2.16,8.07,8.07,0,0,1-2.43-2.6A6.7,6.7,0,0,1,64.7,59a7.21,7.21,0,0,1,1-3.79,7.6,7.6,0,0,1,3.21-2.94A12,12,0,0,1,74.4,51a26.42,26.42,0,0,1,3.87.2,11,11,0,0,1,2.7.66.55.55,0,0,1,.32.28,1.51,1.51,0,0,1,.07.37l.1,5.08a.41.41,0,0,1-.15.32A.81.81,0,0,1,80.75,58Z"/></g></g></g></g></g></g></g></g></svg>