<svg xmlns="http://www.w3.org/2000/svg" xmlns:xlink="http://www.w3.org/1999/xlink" viewBox="0 0 120.42 120.41"><defs><style>.cls-1{isolation:isolate;}.cls-2{fill:#c4c1bf;}.cls-3{fill:#162106;}.cls-4{fill:#36591d;}.cls-5{opacity:0.57;mix-blend-mode:multiply;fill:url(#radial-gradient);}.cls-6{fill:#a0d860;}</style><radialGradient id="radial-gradient" cx="-23.17" cy="35.52" r="60.18" gradientTransform="translate(90.62 30.74) rotate(12.6)" gradientUnits="userSpaceOnUse"><stop offset="0" stop-color="#1f1a1e"/><stop offset="0.01" stop-color="#454145"/><stop offset="0.03" stop-color="#a5a3a5"/><stop offset="0.05" stop-color="#fff"/><stop offset="0.14" stop-color="#fdfcfc"/><stop offset="0.2" stop-color="#f4f4f4" stop-opacity="0.99"/><stop offset="0.25" stop-color="#e6e6e6" stop-opacity="0.98"/><stop offset="0.29" stop-color="#d2d1d2" stop-opacity="0.96"/><stop offset="0.33" stop-color="#b9b7b8" stop-opacity="0.94"/><stop offset="0.37" stop-color="#999799" stop-opacity="0.91"/><stop offset="0.4" stop-color="#737073" stop-opacity="0.88"/><stop offset="0.44" stop-color="#494548" stop-opacity="0.84"/><stop offset="0.47" stop-color="#191418" stop-opacity="0.8"/><stop offset="0.47" stop-color="#181317" stop-opacity="0.8"/><stop offset="0.51" stop-color="#383337" stop-opacity="0.83"/><stop offset="0.6" stop-color="#747073" stop-opacity="0.88"/><stop offset="0.69" stop-color="#a5a3a5" stop-opacity="0.92"/><stop offset="0.78" stop-color="#cccbcc" stop-opacity="0.95"/><stop offset="0.85" stop-color="#e8e8e8" stop-opacity="0.97"/><stop offset="0.92" stop-color="#f9f9f9" stop-opacity="0.99"/><stop offset="0.97" stop-color="#fff" stop-opacity="0.99"/><stop offset="0.99" stop-color="#696668"/><stop offset="1" stop-color="#181317"/></radialGradient></defs><title>AS_SubstancePainter</title><g class="cls-1"><g id="Layer_2" data-name="Layer 2"><g id="Desktop_S1"><g id="SoftwareChips"><g id="SubstancePainterChip"><g id="Shape"><rect id="MBG" class="cls-2" y="0.99" width="120" height="119" rx="59.5" transform="translate(-1.43 1.45) rotate(-1.37)"/><rect id="MBG-2" data-name="MBG" class="cls-3" x="19.01" y="20.68" width="81" height="80.32" rx="40.16" transform="translate(-1.44 1.44) rotate(-1.37)"/><path class="cls-4" d="M61.14,120.4c32.92-.79,60.05-28.16,59.26-61.15S91.25-.77,58.26,0-.77,29.15,0,62.14A59.81,59.81,0,0,0,61.14,120.4ZM58.62,14.93A45.79,45.79,0,1,1,13.93,61.8,45.85,45.85,0,0,1,58.62,14.93ZM17.92,61.71h0a42.25,42.25,0,0,0,1.65,10.8l-2.7.83A44.23,44.23,0,0,0,21.6,84L24,82.54a41.8,41.8,0,0,0,6.85,8.51l-2,2.08a48,48,0,0,0,9.4,6.9l1.33-2.48a42.54,42.54,0,0,0,10.17,4l-.7,2.74a44.74,44.74,0,0,0,11.57,1.26h0l-.07-2.86A42.32,42.32,0,0,0,71.38,101l.83,2.71A44.62,44.62,0,0,0,82.87,99l-1.46-2.42a42.1,42.1,0,0,0,8.51-6.84l2.08,2a48.25,48.25,0,0,0,6.9-9.39L96.42,81a42.54,42.54,0,0,0,4-10.17l2.74.71a44.83,44.83,0,0,0,1.26-11.57h0l-2.86.06a42.32,42.32,0,0,0-1.66-10.8l2.71-.83a44.62,44.62,0,0,0-4.73-10.66l-2.42,1.46a42.08,42.08,0,0,0-6.85-8.51l2-2.07a48.71,48.71,0,0,0-9.39-6.91l-1.34,2.48a42.51,42.51,0,0,0-10.17-3.95l.71-2.75a44.83,44.83,0,0,0-11.57-1.26l.06,2.87h0a42.79,42.79,0,0,0-10.8,1.65L47.22,18a44.23,44.23,0,0,0-10.66,4.73L38,25.14A42.08,42.08,0,0,0,29.51,32l-2.07-2a48.07,48.07,0,0,0-6.91,9.4L23,40.75a42.28,42.28,0,0,0-4,10.16l-2.75-.7a44.79,44.79,0,0,0-1.26,11.57ZM58.76,21A39.71,39.71,0,1,1,20,61.66,39.72,39.72,0,0,1,58.76,21Z"/><g id="Corners"><path class="cls-2" d="M98.45,37.06,111,29a60.12,60.12,0,0,0-9.41-11.54L91.24,28.24Z"/><path class="cls-2" d="M103.71,47.94l1.29,12,15-.35c0-.17,0-.34,0-.5h0a59.42,59.42,0,0,0-2.44-15.5Z"/><path class="cls-2" d="M1.69,46.4l14.05,3.65L19.47,39,7.59,31.44A58.91,58.91,0,0,0,1.69,46.4Z"/><path class="cls-2" d="M26.56,29.12l9.18-6.76L28.62,9.65a59.67,59.67,0,0,0-11.55,9.17Z"/><path class="cls-2" d="M76.47,117.81,72,103.72,60.68,106l1.15,14h.1A60,60,0,0,0,76.47,117.81Z"/><path class="cls-2" d="M31.59,113.05a58.93,58.93,0,0,0,15,5.53l2.51-14.31L38,100.53Z"/></g><path id="Shadow" class="cls-5" d="M61.14,120.4c32.92-.79,60.05-28.16,59.26-61.15S91.25-.77,58.26,0-.77,29.15,0,62.14A59.81,59.81,0,0,0,61.14,120.4ZM58.76,21A39.71,39.71,0,1,1,20,61.66,39.72,39.72,0,0,1,58.76,21Z"/></g><g id="Logo"><path class="cls-6" d="M37.57,78.23l-1-33.85c0-.25.1-.38.31-.38l2-.08,2.52-.13,2.86-.13c1,0,2-.08,3-.11a19.8,19.8,0,0,1,6.81.82,11.65,11.65,0,0,1,4.49,2.57,10.3,10.3,0,0,1,2.52,3.67A12.57,12.57,0,0,1,62,54.85a11.8,11.8,0,0,1-1.76,7A11.22,11.22,0,0,1,55,66.06a21.16,21.16,0,0,1-7.38,1.45c-.78,0-1.33,0-1.64,0s-.8,0-1.44,0L44.88,78a.43.43,0,0,1-.35.48h-.12L38,78.65C37.7,78.65,37.58,78.51,37.57,78.23ZM44.1,50.16l.31,11c.45,0,.88,0,1.27,0l1.75,0a12.42,12.42,0,0,0,3.77-.63,5.76,5.76,0,0,0,2.65-1.82,5.1,5.1,0,0,0,.94-3.42,5.36,5.36,0,0,0-.85-2.89,4.92,4.92,0,0,0-2.37-1.82A9.83,9.83,0,0,0,47.69,50c-.85,0-1.6,0-2.25.08s-1.1.08-1.35.12Z"/><path class="cls-6" d="M82.14,72.16l.12,4.34c0,.39-.12.62-.4.7a16.9,16.9,0,0,1-2.11.59,12.65,12.65,0,0,1-2.53.28,7.64,7.64,0,0,1-5.46-1.65q-2-1.74-2.12-5.72l-.36-13.13-3.13.08c-.28,0-.43-.14-.44-.46l-.14-5.25c0-.28.14-.43.46-.44l3.13-.08c0-.6,0-1.3.07-2.1s.08-1.59.15-2.39.12-1.44.18-1.94a.89.89,0,0,1,.15-.29.52.52,0,0,1,.26-.2l6.28-1a.48.48,0,0,1,.29,0c.08,0,.09.13.09.31,0,.81-.07,1.92-.06,3.31s0,2.75,0,4.06l4.93-.14c.21,0,.32.13.33.42L82,56.85a.32.32,0,0,1-.25.37l-5,.15L77,68.7a4.09,4.09,0,0,0,.69,2.55A2.75,2.75,0,0,0,80,72c.32,0,.62,0,.9,0l.84-.1a.39.39,0,0,1,.3,0A.37.37,0,0,1,82.14,72.16Z"/></g></g></g></g></g></g></svg>