<svg xmlns="http://www.w3.org/2000/svg" xmlns:xlink="http://www.w3.org/1999/xlink" viewBox="0 0 120.38 120.4"><defs><style>.cls-1{isolation:isolate;}.cls-2{fill:#c4c1bf;}.cls-3{fill:#cccbc6;}.cls-4{fill:#4b2856;}.cls-5{opacity:0.57;mix-blend-mode:multiply;fill:url(#radial-gradient);}.cls-6{fill:#181317;}</style><radialGradient id="radial-gradient" cx="-54.22" cy="-84.72" r="60.18" gradientTransform="translate(77.63 159.5) rotate(22.69)" gradientUnits="userSpaceOnUse"><stop offset="0" stop-color="#1f1a1e"/><stop offset="0.01" stop-color="#454145"/><stop offset="0.03" stop-color="#a5a3a5"/><stop offset="0.05" stop-color="#fff"/><stop offset="0.14" stop-color="#fdfcfc"/><stop offset="0.2" stop-color="#f4f4f4" stop-opacity="0.99"/><stop offset="0.25" stop-color="#e6e6e6" stop-opacity="0.98"/><stop offset="0.29" stop-color="#d2d1d2" stop-opacity="0.96"/><stop offset="0.33" stop-color="#b9b7b8" stop-opacity="0.94"/><stop offset="0.37" stop-color="#999799" stop-opacity="0.91"/><stop offset="0.4" stop-color="#737073" stop-opacity="0.88"/><stop offset="0.44" stop-color="#494548" stop-opacity="0.84"/><stop offset="0.47" stop-color="#191418" stop-opacity="0.8"/><stop offset="0.47" stop-color="#181317" stop-opacity="0.8"/><stop offset="0.51" stop-color="#383337" stop-opacity="0.83"/><stop offset="0.6" stop-color="#747073" stop-opacity="0.88"/><stop offset="0.69" stop-color="#a5a3a5" stop-opacity="0.92"/><stop offset="0.78" stop-color="#cccbcc" stop-opacity="0.95"/><stop offset="0.85" stop-color="#e8e8e8" stop-opacity="0.97"/><stop offset="0.92" stop-color="#f9f9f9" stop-opacity="0.99"/><stop offset="0.97" stop-color="#fff" stop-opacity="0.99"/><stop offset="0.99" stop-color="#696668"/><stop offset="1" stop-color="#181317"/></radialGradient></defs><title>AS_UnrealEngine</title><g class="cls-1"><g id="Layer_2" data-name="Layer 2"><g id="Desktop_S1"><g id="SoftwareChips"><g id="UnrealEngineChip"><g id="Shape"><rect id="MBG" class="cls-2" x="0.52" y="0.52" width="119" height="120" rx="59.5" transform="translate(-8.9 110.67) rotate(-81.28)"/><rect id="MBG-2" data-name="MBG" class="cls-3" x="19.31" y="20.28" width="80.32" height="81" rx="40.16" transform="translate(-9.62 110.35) rotate(-81.28)"/><path class="cls-4" d="M50.65,119.7c32.55,5,64.05-17.2,69.05-49.82S101.52,5.68,68.9.67,5.68,19,.68,51.63A59.82,59.82,0,0,0,50.65,119.7Zm16-104.29A45.79,45.79,0,1,1,14.43,53.74,45.86,45.86,0,0,1,66.64,15.41ZM18.37,54.34h0a42.33,42.33,0,0,0-.26,10.93l-2.81.34a44,44,0,0,0,2.79,11.32l2.63-1A42.14,42.14,0,0,0,26,85.5l-2.31,1.69a48.29,48.29,0,0,0,8,8.45l1.75-2.2a42.83,42.83,0,0,0,9.32,5.67l-1.17,2.58A45.17,45.17,0,0,0,52.77,105h0l.43-2.84a42.26,42.26,0,0,0,10.92.26l.35,2.81a44,44,0,0,0,11.32-2.79l-1-2.63a41.75,41.75,0,0,0,9.58-5.25l1.69,2.31a48.29,48.29,0,0,0,8.45-8L92.29,87A42.48,42.48,0,0,0,98,77.72l2.58,1.18a45.28,45.28,0,0,0,3.26-11.17h0L101,67.29a42.26,42.26,0,0,0,.26-10.92l2.81-.35a44.06,44.06,0,0,0-2.79-11.32l-2.63,1a42.28,42.28,0,0,0-5.25-9.57l2.31-1.7a48.65,48.65,0,0,0-8-8.45L85.9,28.2a42.45,42.45,0,0,0-9.32-5.67L77.76,20a45,45,0,0,0-11.17-3.27l-.44,2.83h0a42.64,42.64,0,0,0-10.92-.26l-.35-2.81a44.37,44.37,0,0,0-11.32,2.79l1,2.63A42.07,42.07,0,0,0,35,27.11L33.3,24.8a48.29,48.29,0,0,0-8.45,8l2.21,1.76a42,42,0,0,0-5.67,9.31l-2.58-1.17a44.74,44.74,0,0,0-3.27,11.17ZM65.72,21.43A39.71,39.71,0,1,1,20.44,54.66,39.72,39.72,0,0,1,65.72,21.43Z"/><g id="Corners"><path class="cls-2" d="M102,44.19l13.73-5.8a60.38,60.38,0,0,0-7.23-13L96.42,34.23Z"/><path class="cls-2" d="M105.25,55.82l-.83,12,14.82,2.28c0-.17.06-.33.08-.5h0a59.44,59.44,0,0,0,.32-15.68Z"/><path class="cls-2" d="M5.08,36.43l13.19,6,5.62-10.26L13.51,22.73A59.31,59.31,0,0,0,5.08,36.43Z"/><path class="cls-2" d="M32.6,23.78l10.22-5.06L38,5a59.72,59.72,0,0,0-13,7Z"/><path class="cls-2" d="M66.19,119.83,64.3,105.18l-11.58.22-1.32,14,.09,0A59.58,59.58,0,0,0,66.19,119.83Z"/><path class="cls-2" d="M22.84,107.29a59.31,59.31,0,0,0,13.75,8.06l5-13.65L31.3,96.08Z"/></g><path id="Shadow" class="cls-5" d="M50.65,119.7c32.55,5,64.05-17.2,69.05-49.82S101.52,5.68,68.9.67,5.68,19,.68,51.63A59.82,59.82,0,0,0,50.65,119.7ZM65.72,21.43A39.71,39.71,0,1,1,20.44,54.66,39.72,39.72,0,0,1,65.72,21.43Z"/></g><g id="Logo"><path class="cls-6" d="M83.63,66.33h0A24.27,24.27,0,0,1,70.15,82.74l-3.91-4.4L59.65,85A24.34,24.34,0,0,1,40.39,75.1a9.27,9.27,0,0,0,2.15.4,2,2,0,0,0,2.25-2.19V55.42A2.94,2.94,0,0,0,42,52.37a2.78,2.78,0,0,0-.86.1c-3.06.7-5.5,8.32-5.5,8.32A24.26,24.26,0,0,1,44,42.21,24.56,24.56,0,0,1,56.35,36.5c-3.34,1.9-5.21,5-5.21,7.61,0,4.17,2.52,3.68,3.27,3.06V71.33a3.67,3.67,0,0,0,.49.86,3.56,3.56,0,0,0,2.92,1.47c2.52,0,5.8-2.88,5.8-2.88V51.22a6.76,6.76,0,0,0-3-5.22,7,7,0,0,1,4.93,1.15h0a17.13,17.13,0,0,1,1.28-1.41,24.21,24.21,0,0,1,13.64-7h0s-7.15,5.61-7.15,13.14c0,5.6.15,19.25.15,19.25C76.13,73.68,80.06,70,83.63,66.33Z"/><path class="cls-6" d="M60,20.78A39.83,39.83,0,1,0,99.79,60.6h0A39.82,39.82,0,0,0,60,20.78Zm0,78.06A38.24,38.24,0,1,1,98.19,60.6h0A38.24,38.24,0,0,1,60,98.84Z"/></g></g></g></g></g></g></svg>