<svg xmlns="http://www.w3.org/2000/svg" viewBox="0 0 29.62 28.89"><defs><style>.cls-1{fill:#5e4951;}</style></defs><title>AS_Github</title><g id="Layer_2" data-name="Layer 2"><g id="Desktop_S1"><g id="BottomMenu"><g id="social"><path id="github" class="cls-1" d="M14.81,0a14.81,14.81,0,0,0-4.68,28.86c.74.14,1-.32,1-.71V25.4c-4.12.89-5-1.75-5-1.75a3.94,3.94,0,0,0-1.64-2.17c-1.35-.92.1-.9.1-.9a3.12,3.12,0,0,1,2.27,1.53,3.15,3.15,0,0,0,4.31,1.23,3.1,3.1,0,0,1,.94-2C8.82,21,5.36,19.71,5.36,14a5.73,5.73,0,0,1,1.53-4A5.3,5.3,0,0,1,7,6.14s1.24-.39,4.07,1.52a14,14,0,0,1,7.42,0c2.83-1.91,4.07-1.52,4.07-1.52a5.33,5.33,0,0,1,.15,3.92,5.73,5.73,0,0,1,1.52,4c0,5.69-3.46,6.94-6.76,7.31a3.53,3.53,0,0,1,1,2.74v4.06c0,.4.24.86,1,.71A14.81,14.81,0,0,0,14.81,0Z"/></g></g></g></g></svg>