<svg xmlns="http://www.w3.org/2000/svg" viewBox="0 0 28.89 28.89"><defs><style>.cls-1{fill:#5e4951;}</style></defs><title>AS_Linkedin</title><g id="Layer_2" data-name="Layer 2"><g id="Desktop_S1"><g id="BottomMenu"><g id="social"><path id="linkedin" class="cls-1" d="M22.87,0H6A6,6,0,0,0,0,6V22.87a6,6,0,0,0,6,6H22.87a6,6,0,0,0,6-6V6A6,6,0,0,0,22.87,0ZM9.63,22.87H6V9.63H9.63ZM7.82,8.1A2.12,2.12,0,1,1,9.93,6,2.11,2.11,0,0,1,7.82,8.1ZM24.08,22.87H20.46V16.13c0-4.06-4.81-3.75-4.81,0v6.74H12V9.63h3.61v2.12c1.68-3.11,8.43-3.34,8.43,3Z"/></g></g></g></g></svg>