<svg xmlns="http://www.w3.org/2000/svg" viewBox="0 0 163.5 163.32"><defs><style>.cls-1{fill:#181317;}.cls-2{opacity:0.81;}.cls-3{fill:#d3cfd2;}</style></defs><title>PlayButton</title><g id="Layer_2" data-name="Layer 2"><g id="Desktop_S1"><g id="ShowReel"><g id="Layer_40" data-name="Layer 40"><rect class="cls-1" width="163" height="163" rx="81.5"/></g><g id="Icon" class="cls-2"><path class="cls-3" d="M135.35,20a81.66,81.66,0,0,0-107,123.36A81.66,81.66,0,0,0,135.35,20ZM87.15,154.62C45.82,157.55,11.81,128.31,8.88,87S35.19,11.63,76.53,8.7,151.87,35,154.8,76.35,128.49,151.69,87.15,154.62Z"/><path class="cls-3" d="M121.9,76.21,61.4,37.13a3.25,3.25,0,0,0-5,3l6.12,86.3a3.24,3.24,0,0,0,2,2.78,3.4,3.4,0,0,0,1.47.24,3.31,3.31,0,0,0,1.91-.79L122.26,81.4a3.23,3.23,0,0,0,1.12-2.68A3.3,3.3,0,0,0,121.9,76.21ZM69.54,117.44l-4.2-69.31,47.39,31.2Z"/></g></g></g></g></svg>