<svg xmlns="http://www.w3.org/2000/svg" xmlns:xlink="http://www.w3.org/1999/xlink" viewBox="0 0 161.11 161.03"><defs><style>.cls-1{isolation:isolate;}.cls-2{opacity:0.9;}.cls-3,.cls-6{fill:#312d30;}.cls-4{opacity:0.38;mix-blend-mode:multiply;fill:url(#radial-gradient);}.cls-5{fill:#b9b5ba;}.cls-6{stroke:#312d30;stroke-miterlimit:10;stroke-width:2px;}</style><radialGradient id="radial-gradient" cx="80.53" cy="80.45" r="80.49" gradientUnits="userSpaceOnUse"><stop offset="0.05" stop-color="#fff" stop-opacity="0"/><stop offset="0.33" stop-color="#e0dfe0" stop-opacity="0.11"/><stop offset="0.5" stop-color="#797679" stop-opacity="0.46"/><stop offset="0.59" stop-color="#181317" stop-opacity="0.8"/><stop offset="0.78" stop-color="#b5b3b5" stop-opacity="0.26"/><stop offset="0.95" stop-color="#fff" stop-opacity="0"/><stop offset="1" stop-color="#181317"/></radialGradient></defs><title>AS_PlayButton_v04</title><g class="cls-1"><g id="Layer_2" data-name="Layer 2"><g id="Desktop_S1"><g id="ShowReel" class="cls-2"><g id="Icon2"><g id="Shape"><path id="MBG" class="cls-3" d="M71,160.23l-2.67-.41C24.07,153-5.83,111.61,1,67.31H1A79.53,79.53,0,0,1,91.69.93h0c45,6.91,75.29,48.91,68.38,93.94h0C153.53,137.5,108.09,165.69,71,160.23Z"/><path id="MBG-2" data-name="MBG" class="cls-4" d="M71,160.23l-2.67-.41C24.07,153-5.83,111.61,1,67.31H1A79.53,79.53,0,0,1,91.69.93h0c45,6.91,75.29,48.91,68.38,93.94h0C153.53,137.5,108.09,165.69,71,160.23Z"/><path id="MBG-3" data-name="MBG" class="cls-5" d="M72.84,137h0C41.91,132.29,20.16,102.87,25,71.5h0c4.71-30.72,33.18-51.78,63.47-47.14h0c31.45,4.82,52.51,34.51,47.62,66.41h0C131.43,121,98.72,140.85,72.84,137Z"/><g id="Corners"><path class="cls-5" d="M137.19,58.19l17.7-7.48a78.62,78.62,0,0,0-9.7-17.34l-15.5,11.38s3.15,4.75,4.1,6.47S137.19,58.19,137.19,58.19Z"/><path class="cls-5" d="M141.16,74.16s.46,5.88.33,7.72c-.16,2.21-.93,8.45-.93,8.45l19.79,2.73c0-.22,0,.23,0,0h0a78.46,78.46,0,0,0,0-21.59Z"/><path class="cls-5" d="M6.47,48,24.3,56.08s2.77-6,3.67-7.64,4.15-6.16,4.15-6.16L17.67,29.51A79.52,79.52,0,0,0,6.47,48Z"/><path class="cls-5" d="M43.38,31.16s5.08-3.3,6.87-4.18,6.91-3,6.91-3L51,5.31A77.76,77.76,0,0,0,33,15Z"/><path class="cls-5" d="M88.63,160.42l-2.17-18.8s-6.47.42-8.22.29c-2-.14-7.72-.92-7.72-.92s-1.77,14-2.23,18.69v.14A59.8,59.8,0,0,0,88.63,160.42Z"/><path class="cls-5" d="M30.44,143.26a78.66,78.66,0,0,0,18.32,11l6.6-17.79s-5.85-2.8-7.55-3.73-6.2-4.3-6.2-4.3Z"/></g></g><path class="cls-6" d="M113.92,73.77,62.55,45.58a2.66,2.66,0,0,0-3.9,2.7l10,69.68a2.65,2.65,0,0,0,1.79,2.14,2.66,2.66,0,0,0,2.7-.65L114.52,78a2.63,2.63,0,0,0-.6-4.18Z"/></g></g></g></g></g></svg>