<svg xmlns="http://www.w3.org/2000/svg" viewBox="0 0 171.35 171.34"><defs><style>.cls-1{opacity:0.94;}.cls-2{opacity:0.89;}.cls-3{fill:#181317;}.cls-4{fill:#e0dcdf;}.cls-5{fill:#2e2a2c;}.cls-6{fill:#312d30;}</style></defs><title>AS_PlayButton</title><g id="Layer_2" data-name="Layer 2"><g id="Desktop_S1"><g id="ShowReel" class="cls-1"><g id="Layer_40" data-name="Layer 40" class="cls-2"><rect class="cls-3" x="3.83" y="4.02" width="163" height="163" rx="81.5"/></g><g id="Icon"><path class="cls-4" d="M85.5,169.34A83.69,83.69,0,0,1,2.87,97.56,83.64,83.64,0,0,1,73.78,2.87,84.35,84.35,0,0,1,85.84,2a83.69,83.69,0,0,1,82.64,71.78,83.66,83.66,0,0,1-70.92,94.7,85.6,85.6,0,0,1-12.06.86Zm.89-154.87a76.79,76.79,0,0,0-11,.79C56.13,18,39.37,27.8,28.22,42.77s-15.74,33.83-13,53.16c5.15,35.88,33.81,60.95,69.69,60.95a76.84,76.84,0,0,0,11-.8c40.07-5.75,65.93-40.43,60.16-80.66C150.93,39.53,122.27,14.47,86.39,14.47Z"/><path class="cls-5" d="M85.84,4A81.67,81.67,0,0,1,151,134.62,81.1,81.1,0,0,1,97.28,166.5a83.65,83.65,0,0,1-11.78.84A81.67,81.67,0,0,1,20.31,36.73,81.14,81.14,0,0,1,74.07,4.85,82.06,82.06,0,0,1,85.84,4M85,158.88a78.59,78.59,0,0,0,11.26-.82c41-5.89,67.74-41.91,61.85-82.93-5.34-37.21-35.49-62.66-71.67-62.66a78.66,78.66,0,0,0-11.26.81c-41,5.89-67.74,41.91-61.85,82.93,5.35,37.22,35.49,62.67,71.67,62.67M85.84,0A86.71,86.71,0,0,0,73.5.89a85.64,85.64,0,0,0-72.61,97A85.69,85.69,0,0,0,85.5,171.34a86.83,86.83,0,0,0,12.35-.88,85.66,85.66,0,0,0,72.61-97A85.69,85.69,0,0,0,85.84,0ZM85,154.88c-34.86,0-62.7-24.36-67.71-59.24-5.62-39.1,19.52-72.81,58.46-78.4a75.69,75.69,0,0,1,10.69-.77c34.87,0,62.71,24.36,67.71,59.23,2.7,18.8-1.76,37.16-12.58,51.68s-27.12,24-45.88,26.72a74.25,74.25,0,0,1-10.69.78Z"/><path class="cls-4" d="M72.82,135.48a4.42,4.42,0,0,1-1.34-.22,4.23,4.23,0,0,1-2.87-3.43L56.31,46.18a4.26,4.26,0,0,1,4.21-4.86,4.32,4.32,0,0,1,2,.53l63.15,34.64a4.25,4.25,0,0,1,1,6.73l-50.84,51a4.31,4.31,0,0,1-2.41,1.21,4.07,4.07,0,0,1-.61,0Zm3.87-15.4,38-38.72L68.06,55.26Z"/><path class="cls-6" d="M60.52,42.33a3.24,3.24,0,0,1,1.57.4l63.15,34.63a3.25,3.25,0,0,1,1.65,2.39,3.22,3.22,0,0,1-.92,2.76l-50.84,51a3.27,3.27,0,0,1-1.85.92,3.42,3.42,0,0,1-.46,0,3.28,3.28,0,0,1-3.22-2.8L57.3,46a3.24,3.24,0,0,1,3.22-3.71M76,122.25l40.35-41.12L66.81,53.41,76,122.25M60.52,40.33a5.24,5.24,0,0,0-5.2,6L67.62,132a5.25,5.25,0,0,0,3.55,4.24,5.14,5.14,0,0,0,1.65.27,4.74,4.74,0,0,0,.75-.06,5.28,5.28,0,0,0,3-1.49l50.85-51a5.25,5.25,0,0,0-1.19-8.31L63.05,41a5.31,5.31,0,0,0-2.53-.64Zm16.89,77.59L69.32,57.11,113.05,81.6,77.41,117.92Z"/></g></g></g></g></svg>