<?xml version="1.0" encoding="utf-8"?>
<!-- Generator: Adobe Illustrator 24.0.2, SVG Export Plug-In . SVG Version: 6.00 Build 0)  -->
<svg version="1.1" id="Layer_1" xmlns="http://www.w3.org/2000/svg" xmlns:xlink="http://www.w3.org/1999/xlink" x="0px" y="0px"
	 viewBox="0 0 128 128" style="enable-background:new 0 0 128 128;" xml:space="preserve">
<style type="text/css">
	.st0{fill:#35222E;}
	.st1{fill:#FFFFFF;}
</style>
<path class="st0" d="M118.8,95.8c0.9-1.5,1.4-3.3,1.4-4.8V36.8c0-1.6-0.6-3.3-1.4-4.8L63.4,63.9L118.8,95.8z"/>
<path class="st0" d="M68.4,126.6l46.9-27.1c1.4-0.8,2.6-2.1,3.5-3.7L63.4,63.9L8.1,95.8c0.9,1.5,2.1,2.9,3.5,3.7l46.9,27.1
	C61.2,128.1,65.7,128.1,68.4,126.6L68.4,126.6z"/>
<path class="st0" d="M118.8,31.9c-0.9-1.5-2.1-2.9-3.5-3.7L68.4,1.2c-2.7-1.6-7.1-1.6-9.8,0L11.6,28.3c-2.7,1.6-4.9,5.4-4.9,8.5V91
	c0,1.6,0.6,3.3,1.4,4.8l55.3-31.9L118.8,31.9z"/>
<path class="st1" d="M63.4,26c-20.9,0-37.8,17-37.8,37.8s17,37.8,37.8,37.8c13.5,0,26-7.2,32.8-18.9l-16.4-9.5
	c-3.4,5.8-9.7,9.5-16.4,9.5c-10.4,0-18.9-8.5-18.9-18.9S53,45,63.4,45c6.7,0,13,3.6,16.4,9.5l16.4-9.5C89.5,33.3,76.9,26,63.4,26
	L63.4,26z M92.9,57.6v4.2h-4.2V66h4.2v4.2h4.2V66h4.2v-4.2h-4.2v-4.2H92.9z M108.6,57.6v4.2h-4.2V66h4.2v4.2h4.2V66h4.2v-4.2h-4.2
	v-4.2H108.6z"/>
</svg>
