<?xml version="1.0" encoding="utf-8"?>
<!-- Generator: Adobe Illustrator 24.0.2, SVG Export Plug-In . SVG Version: 6.00 Build 0)  -->
<svg version="1.1" id="Layer_1" xmlns="http://www.w3.org/2000/svg" xmlns:xlink="http://www.w3.org/1999/xlink" x="0px" y="0px"
	 viewBox="0 0 128 128" style="enable-background:new 0 0 128 128;" xml:space="preserve">
<style type="text/css">
	.st0{fill:#35222E;}
</style>
<path class="st0" d="M17.6,17L-0.2,34.7v76.2h110.6l17.8-17.7V17h-12.3H17.6z M47.6,33.4c8.4,0,14.2,2.3,17.6,7.1
	c3.4,4.7,5,12,5,21.8c0,6.5-0.7,11.7-2.1,15.6c-1.4,4-3.6,7-6.8,9.1L68.1,98l-8.4,3.9l-7.2-11.8c-1,0.3-2.7,0.5-5,0.5
	c-8.5,0-14.4-2.3-17.7-6.8c-3.3-4.5-5-11.7-5-21.4c0-9.8,1.7-17,5.1-21.8C33.3,35.8,39.2,33.4,47.6,33.4L47.6,33.4z M81.5,36.6h8.8
	v11.7h11.2v7.5H90.3v17.8c0,3.3,0.3,5.5,0.7,6.6c0.5,1.1,1.8,1.6,3.7,1.6l6.7-0.3l0.4,7c-3.6,0.7-6.4,1-8.3,1c-4.6,0-7.8-1-9.5-3.1
	c-1.7-2.1-2.6-6-2.6-11.9V55.8h-6.2v-7.5h6.2L81.5,36.6z M47.6,41.3c-5.1,0-8.6,1.7-10.5,5c-1.9,3.3-2.8,8.7-2.8,16
	c0,7.3,0.9,12.6,2.8,15.7c1.8,3.1,5.4,4.7,10.6,4.7c5.2,0,8.7-1.6,10.5-4.7c1.8-3.1,2.7-8.3,2.7-15.7c0-7.4-0.9-12.7-2.8-16.1
	C56.2,42.9,52.7,41.3,47.6,41.3L47.6,41.3z"/>
</svg>
